<svg width="870" height="77" viewBox="0 0 870 77" fill="none" xmlns="http://www.w3.org/2000/svg">
<path fill-rule="evenodd" clip-rule="evenodd" d="M45.656 70.033H29.656V46.21H45.656V70.033ZM42.718 49.134H32.593V67.11H42.718V49.134Z" fill="#81B3D2"/>
<path fill-rule="evenodd" clip-rule="evenodd" d="M72.771 44.253L74.847 42.185L64.939 32.32V5H51.127V18.567L37.5 5L0.151993 42.185L2.22899 44.253L10.061 36.458V74.076H6.12399V77H69.999V74.076H64.94V36.458L72.771 44.253ZM62.002 74.076H12.999V33.534L37.5 9.149L62.002 33.534V74.076ZM54.064 21.492L62.002 29.394V7.924H54.064V21.492Z" fill="#81B3D2"/>
<path fill-rule="evenodd" clip-rule="evenodd" d="M37.656 39.7929C33.376 39.7929 29.906 36.3409 29.906 32.0799C29.906 27.8209 33.375 24.3669 37.656 24.3669C41.935 24.3669 45.406 27.8209 45.406 32.0799C45.406 36.3409 41.935 39.7929 37.656 39.7929ZM42.625 32.0799C42.625 29.3489 40.4 27.1349 37.656 27.1349C34.911 27.1349 32.686 29.3489 32.686 32.0799C32.686 34.8119 34.91 37.0279 37.656 37.0279C40.4 37.0279 42.625 34.8119 42.625 32.0799ZM17.061 46.2099H20.061V50.1289H17.061V46.2099ZM25.999 46.2099H22.999V50.1289H25.999V46.2099ZM17.061 52.1819H20.061V56.1009H17.061V52.1819ZM25.999 52.1819H22.999V56.1009H25.999V52.1819ZM48.998 46.2099H51.998V50.1289H48.998V46.2099ZM57.936 46.2099H54.936V50.1289H57.936V46.2099ZM48.998 52.1819H51.998V56.1009H48.998V52.1819ZM57.936 52.1819H54.936V56.1009H57.936V52.1819Z" fill="#81B3D2"/>
<path fill-rule="evenodd" clip-rule="evenodd" d="M867.097 23.501H842.312C856.125 16.602 857.229 12.25 856.72 9.816C855.558 5.853 851.028 2.793 846.718 4.409C841.149 6.498 839.581 14.797 838.074 20.796C836.15 14.726 834.29 6.982 829.938 3.059C828.677 1.921 826.843 0.794999 824.175 1.031C820.149 1.387 814.373 6.413 816.717 12.012C818.968 17.39 826.404 20.789 831.295 23.501H808.879C807.294 23.5026 806.007 24.7846 806 26.37V37.692C806.007 39.2774 807.294 40.5594 808.879 40.561H809.153V77H866.994V40.561H867.097C868.683 40.5599 869.97 39.2778 869.977 37.692V26.37C869.97 24.7842 868.683 23.5021 867.097 23.501ZM848.413 6.944C850.516 6.634 853.395 8.243 853.668 10.153C854.061 12.909 850.268 15.408 848.582 16.574C846.059 18.318 843.654 19.217 841.295 20.629C842.179 16.939 843.844 7.618 848.413 6.944ZM825.531 16.912C823.306 15.427 818.987 12.481 819.091 9.141C819.203 5.546 824.834 2.571 827.905 5.255C831.761 8.626 833.618 16.36 835.024 21.812C831.775 20.273 828.696 19.024 825.531 16.912ZM831.503 74.026H812.136V40.561H831.504V74.026H831.503ZM831.503 37.524H809.046V26.538H831.503V37.524ZM841.66 37.524V74.027H834.486V26.538H841.66V37.524ZM864.011 74.026H844.644V40.561H864.011V74.026ZM866.931 37.524H844.644V26.538H866.931V37.524Z" fill="#81B3D2"/>
<path fill-rule="evenodd" clip-rule="evenodd" d="M408.978 37.544H469.855C469.896 36.925 469.924 36.303 469.924 35.674C469.924 35.2812 469.908 34.8934 469.892 34.5046V34.5045L469.892 34.501C469.227 18.657 455.186 6 437.952 6C420.719 6 406.677 18.657 406.013 34.501C405.996 34.891 405.981 35.281 405.981 35.674C405.981 36.303 406.009 36.925 406.051 37.544H408.978ZM421.957 48.465L416.634 44.406L411.308 48.465L405.12 43.751L406.841 41.294L411.308 44.695L416.635 40.638L421.958 44.695L427.283 40.638L432.611 44.695L437.939 40.638L443.267 44.695L448.596 40.638L453.923 44.695L459.253 40.639L464.589 44.696L469.063 41.293L470.783 43.752L464.589 48.464L459.253 44.405L453.923 48.465L448.596 44.406L443.267 48.465L437.939 44.406L432.611 48.465L427.283 44.406L421.957 48.465ZM405.051 52.71H470.854C473.128 52.71 474.988 54.65 474.988 57.023V60.527C474.988 62.899 473.127 64.84 470.853 64.84H469.923V65.893C469.923 71.429 465.581 75.958 460.275 75.958H415.629C410.322 75.958 405.981 71.429 405.981 65.893V64.84H405.051C402.777 64.84 400.916 62.899 400.916 60.527V57.023C400.916 54.65 402.777 52.71 405.051 52.71ZM460.276 72.915C463.987 72.915 467.006 69.765 467.006 65.894H467.005V64.841H408.898V65.894C408.898 69.765 411.918 72.915 415.629 72.915H460.276ZM472.071 60.527C472.071 61.215 471.513 61.798 470.853 61.798H405.051C404.391 61.798 403.834 61.216 403.834 60.527V57.023C403.834 56.335 404.392 55.752 405.051 55.752H470.853C471.513 55.752 472.071 56.334 472.071 57.023V60.527ZM466.973 34.501C466.302 20.359 453.543 9.043 437.952 9.043C422.361 9.043 409.604 20.359 408.931 34.501H466.973Z" fill="#81B3D2"/>
<path d="M437.952 23.29C439.026 23.29 439.897 22.3811 439.897 21.26C439.897 20.1388 439.026 19.23 437.952 19.23C436.878 19.23 436.007 20.1388 436.007 21.26C436.007 22.3811 436.878 23.29 437.952 23.29Z" fill="#81B3D2"/>
<path d="M430.172 18.26C431.247 18.26 432.118 17.3511 432.118 16.23C432.118 15.1088 431.247 14.2 430.172 14.2C429.097 14.2 428.226 15.1088 428.226 16.23C428.226 17.3511 429.097 18.26 430.172 18.26Z" fill="#81B3D2"/>
<path d="M445.732 18.26C446.807 18.26 447.678 17.3511 447.678 16.23C447.678 15.1088 446.807 14.2 445.732 14.2C444.657 14.2 443.786 15.1088 443.786 16.23C443.786 17.3511 444.657 18.26 445.732 18.26Z" fill="#81B3D2"/>
</svg>
